<?xml version="1.0" encoding="UTF-8" standalone="no"?>
<!DOCTYPE svg PUBLIC "-//W3C//DTD SVG 1.1//EN"
 "http://www.w3.org/Graphics/SVG/1.1/DTD/svg11.dtd">
<!-- Generated by graphviz version 2.40.1 (20161225.0304)
 -->
<!-- Title: %0 Pages: 1 -->
<svg width="602pt" height="756pt"
 viewBox="0.00 0.00 601.97 756.00" xmlns="http://www.w3.org/2000/svg" xmlns:xlink="http://www.w3.org/1999/xlink">
<g id="graph0" class="graph" transform="scale(1 1) rotate(0) translate(144 612)">
<title>%0</title>
<polygon fill="#ffffff" stroke="transparent" points="-144,144 -144,-612 457.9748,-612 457.9748,144 -144,144"/>
<!-- bookings -->
<g id="node1" class="node">
<title>bookings</title>
<polygon fill="#ffffff" stroke="transparent" points="246.9748,-45 246.9748,-243 313.9748,-243 313.9748,-45 246.9748,-45"/>
<polygon fill="#add8e6" stroke="transparent" points="247.4748,-225 247.4748,-243 314.4748,-243 314.4748,-225 247.4748,-225"/>
<polygon fill="none" stroke="#000000" points="247.4748,-225 247.4748,-243 314.4748,-243 314.4748,-225 247.4748,-225"/>
<text text-anchor="start" x="262.2242" y="-231.9" font-family="Times,serif" font-weight="bold" font-style="italic" font-size="9.00" fill="#000000"> bookings </text>
<polygon fill="none" stroke="#000000" points="247.4748,-205 247.4748,-225 314.4748,-225 314.4748,-205 247.4748,-205"/>
<text text-anchor="start" x="252.4748" y="-211.9" font-family="Times,serif" font-size="9.00" fill="#000000">user: ObjectID</text>
<polygon fill="none" stroke="#000000" points="247.4748,-185 247.4748,-205 314.4748,-205 314.4748,-185 247.4748,-185"/>
<text text-anchor="start" x="252.3647" y="-191.9" font-family="Times,serif" font-size="9.00" fill="#000000">place: ObjectID</text>
<polygon fill="none" stroke="#000000" points="247.4748,-165 247.4748,-185 314.4748,-185 314.4748,-165 247.4748,-165"/>
<text text-anchor="start" x="252.4748" y="-171.9" font-family="Times,serif" font-size="9.00" fill="#000000">checkIn: Date</text>
<polygon fill="none" stroke="#000000" points="247.4748,-145 247.4748,-165 314.4748,-165 314.4748,-145 247.4748,-145"/>
<text text-anchor="start" x="252.4748" y="-151.9" font-family="Times,serif" font-size="9.00" fill="#000000">checkOut: Date</text>
<polygon fill="none" stroke="#000000" points="247.4748,-125 247.4748,-145 314.4748,-145 314.4748,-125 247.4748,-125"/>
<text text-anchor="start" x="252.4748" y="-131.9" font-family="Times,serif" font-size="9.00" fill="#000000">name: String</text>
<polygon fill="none" stroke="#000000" points="247.4748,-105 247.4748,-125 314.4748,-125 314.4748,-105 247.4748,-105"/>
<text text-anchor="start" x="252.4748" y="-111.9" font-family="Times,serif" font-size="9.00" fill="#000000">phone: String</text>
<polygon fill="none" stroke="#000000" points="247.4748,-85 247.4748,-105 314.4748,-105 314.4748,-85 247.4748,-85"/>
<text text-anchor="start" x="252.4748" y="-91.9" font-family="Times,serif" font-size="9.00" fill="#000000">price: Number</text>
<polygon fill="none" stroke="#000000" points="247.4748,-65 247.4748,-85 314.4748,-85 314.4748,-65 247.4748,-65"/>
<text text-anchor="start" x="252.4748" y="-71.9" font-family="Times,serif" font-size="9.00" fill="#000000">_id: ObjectID</text>
<polygon fill="none" stroke="#000000" points="247.4748,-45 247.4748,-65 314.4748,-65 314.4748,-45 247.4748,-45"/>
<text text-anchor="start" x="252.4748" y="-51.9" font-family="Times,serif" font-size="9.00" fill="#000000">__v: Number</text>
</g>
<!-- places -->
<g id="node2" class="node">
<title>places</title>
<polygon fill="#ffffff" stroke="transparent" points="0,0 0,-278 84,-278 84,0 0,0"/>
<polygon fill="#add8e6" stroke="transparent" points="0,-260 0,-278 84,-278 84,-260 0,-260"/>
<polygon fill="none" stroke="#000000" points="0,-260 0,-278 84,-278 84,-260 0,-260"/>
<text text-anchor="start" x="28.5068" y="-266.9" font-family="Times,serif" font-weight="bold" font-style="italic" font-size="9.00" fill="#000000"> places </text>
<polygon fill="none" stroke="#000000" points="0,-240 0,-260 84,-260 84,-240 0,-240"/>
<text text-anchor="start" x="5" y="-246.9" font-family="Times,serif" font-size="9.00" fill="#000000">owner: ObjectID</text>
<polygon fill="none" stroke="#000000" points="0,-220 0,-240 84,-240 84,-220 0,-220"/>
<text text-anchor="start" x="5" y="-226.9" font-family="Times,serif" font-size="9.00" fill="#000000">title: String</text>
<polygon fill="none" stroke="#000000" points="0,-200 0,-220 84,-220 84,-200 0,-200"/>
<text text-anchor="start" x="5" y="-206.9" font-family="Times,serif" font-size="9.00" fill="#000000">address: String</text>
<polygon fill="none" stroke="#000000" points="0,-180 0,-200 84,-200 84,-180 0,-180"/>
<text text-anchor="start" x="5" y="-186.9" font-family="Times,serif" font-size="9.00" fill="#000000">photos: Array</text>
<polygon fill="none" stroke="#000000" points="0,-160 0,-180 84,-180 84,-160 0,-160"/>
<text text-anchor="start" x="5" y="-166.9" font-family="Times,serif" font-size="9.00" fill="#000000">description: String</text>
<polygon fill="none" stroke="#000000" points="0,-140 0,-160 84,-160 84,-140 0,-140"/>
<text text-anchor="start" x="5" y="-146.9" font-family="Times,serif" font-size="9.00" fill="#000000">perks: Array</text>
<polygon fill="none" stroke="#000000" points="0,-120 0,-140 84,-140 84,-120 0,-120"/>
<text text-anchor="start" x="5" y="-126.9" font-family="Times,serif" font-size="9.00" fill="#000000">extraInfo: String</text>
<polygon fill="none" stroke="#000000" points="0,-100 0,-120 84,-120 84,-100 0,-100"/>
<text text-anchor="start" x="5" y="-106.9" font-family="Times,serif" font-size="9.00" fill="#000000">checkIn: Number</text>
<polygon fill="none" stroke="#000000" points="0,-80 0,-100 84,-100 84,-80 0,-80"/>
<text text-anchor="start" x="5" y="-86.9" font-family="Times,serif" font-size="9.00" fill="#000000">checkOut: Number</text>
<polygon fill="none" stroke="#000000" points="0,-60 0,-80 84,-80 84,-60 0,-60"/>
<text text-anchor="start" x="4.8849" y="-66.9" font-family="Times,serif" font-size="9.00" fill="#000000">maxGuests: Number</text>
<polygon fill="none" stroke="#000000" points="0,-40 0,-60 84,-60 84,-40 0,-40"/>
<text text-anchor="start" x="5" y="-46.9" font-family="Times,serif" font-size="9.00" fill="#000000">price: Number</text>
<polygon fill="none" stroke="#000000" points="0,-20 0,-40 84,-40 84,-20 0,-20"/>
<text text-anchor="start" x="5" y="-26.9" font-family="Times,serif" font-size="9.00" fill="#000000">_id: ObjectID</text>
<polygon fill="none" stroke="#000000" points="0,0 0,-20 84,-20 84,0 0,0"/>
<text text-anchor="start" x="5" y="-6.9" font-family="Times,serif" font-size="9.00" fill="#000000">__v: Number</text>
</g>
<!-- places&#45;&gt;bookings -->
<g id="edge2" class="edge">
<title>places:11&#45;&gt;bookings:1</title>
<path fill="none" stroke="#000000" stroke-dasharray="5,2" d="M84,-30C187.2308,-30 144.244,-195 247.4748,-195"/>
<text text-anchor="middle" x="165.4874" y="-188.2" font-family="Times,serif" font-size="14.00" fill="#000000">places&#45;bookings</text>
<text text-anchor="middle" x="242.4215" y="-182.4" font-family="Times,serif" font-size="14.00" fill="#000000">N</text>
<text text-anchor="middle" x="87.5" y="-17.4" font-family="Times,serif" font-size="14.00" fill="#000000">1</text>
</g>
<!-- users -->
<g id="node3" class="node">
<title>users</title>
<polygon fill="#ffffff" stroke="transparent" points="7,-350 7,-468 77,-468 77,-350 7,-350"/>
<polygon fill="#add8e6" stroke="transparent" points="7,-450 7,-468 77,-468 77,-450 7,-450"/>
<polygon fill="none" stroke="#000000" points="7,-450 7,-468 77,-468 77,-450 7,-450"/>
<text text-anchor="start" x="30.5043" y="-456.9" font-family="Times,serif" font-weight="bold" font-style="italic" font-size="9.00" fill="#000000"> users </text>
<polygon fill="none" stroke="#000000" points="7,-430 7,-450 77,-450 77,-430 7,-430"/>
<text text-anchor="start" x="12" y="-436.9" font-family="Times,serif" font-size="9.00" fill="#000000">name: String</text>
<polygon fill="none" stroke="#000000" points="7,-410 7,-430 77,-430 77,-410 7,-410"/>
<text text-anchor="start" x="12" y="-416.9" font-family="Times,serif" font-size="9.00" fill="#000000">email: String</text>
<polygon fill="none" stroke="#000000" points="7,-390 7,-410 77,-410 77,-390 7,-390"/>
<text text-anchor="start" x="11.6295" y="-396.9" font-family="Times,serif" font-size="9.00" fill="#000000">password: String</text>
<polygon fill="none" stroke="#000000" points="7,-370 7,-390 77,-390 77,-370 7,-370"/>
<text text-anchor="start" x="12" y="-376.9" font-family="Times,serif" font-size="9.00" fill="#000000">_id: ObjectID</text>
<polygon fill="none" stroke="#000000" points="7,-350 7,-370 77,-370 77,-350 7,-350"/>
<text text-anchor="start" x="12" y="-356.9" font-family="Times,serif" font-size="9.00" fill="#000000">__v: Number</text>
</g>
<!-- users&#45;&gt;bookings -->
<g id="edge1" class="edge">
<title>users:3&#45;&gt;bookings:0</title>
<path fill="none" stroke="#000000" stroke-dasharray="5,2" d="M77,-380C182.4436,-380 142.0312,-215 247.4748,-215"/>
<text text-anchor="middle" x="165.4874" y="-369.2" font-family="Times,serif" font-size="14.00" fill="#000000">users&#45;bookings</text>
<text text-anchor="middle" x="242.4215" y="-202.4" font-family="Times,serif" font-size="14.00" fill="#000000">N</text>
<text text-anchor="middle" x="80.5" y="-367.4" font-family="Times,serif" font-size="14.00" fill="#000000">1</text>
</g>
</g>
</svg>
